PathFileType  4	(X/Y/Z) C:\Users\wagnerel85475\Documents\Thesis\opencap-core\Data\3375ffbc-daeb-4a43-b4f7-ac9899cd4c71\MarkerData\PreAugmentation
DataRate	CameraRate	NumFrames	NumMarkers	Units	OrigDataRate	OrigDataStartFrame	OrigNumFrames
60.0	60.0	18	20	m	60.0	720	822
Frame#	Time	Neck			RShoulder			RElbow			RWrist			LShoulder			LElbow			LWrist			midHip			RHip			RKnee			RAnkle			LHip			LKnee			LAnkle			LBigToe			LSmallToe			LHeel			RBigToe			RSmallToe			RHeel			
		X1	Y1	Z1	X2	Y2	Z2	X3	Y3	Z3	X4	Y4	Z4	X5	Y5	Z5	X6	Y6	Z6	X7	Y7	Z7	X8	Y8	Z8	X9	Y9	Z9	X10	Y10	Z10	X11	Y11	Z11	X12	Y12	Z12	X13	Y13	Z13	X14	Y14	Z14	X15	Y15	Z15	X16	Y16	Z16	X17	Y17	Z17	X18	Y18	Z18	X19	Y19	Z19	X20	Y20	Z20	

720	11.9833333	0.8022600	0.8405400	-0.0469100	0.8046000	0.8384100	0.1238300	1.0064900	0.6844000	0.1932100	1.3226200	0.7230700	0.0827100	0.8256700	0.8441300	-0.2069200	1.0864300	0.6462100	-0.2485600	1.3755200	0.7054500	-0.0991300	0.3712700	0.4474800	-0.0522900	0.3902900	0.4455800	0.0752200	0.7554700	0.2748600	0.2077900	0.5399100	-0.1814400	0.1414900	0.3756900	0.4518900	-0.1864100	0.7672500	0.2684200	-0.2942300	0.5294700	-0.1723900	-0.2493700	0.7531300	-0.2267800	-0.3264100	0.6902800	-0.2237300	-0.3555800	0.4687100	-0.2239500	-0.2236400	0.7257600	-0.2208100	0.2612900	0.6664300	-0.2302300	0.2868000	0.5317400	-0.2121200	0.0914600
721	12.0000000	0.7942700	0.8692800	-0.0414000	0.8239200	0.8670400	0.1315100	1.0253600	0.7026200	0.1984500	1.3359700	0.7379800	0.0926800	0.8167800	0.8764600	-0.2025500	1.0636000	0.6677700	-0.2604300	1.3667200	0.7171400	-0.1021700	0.3624200	0.4542600	-0.0478300	0.3922100	0.4605100	0.0826700	0.7565700	0.2793100	0.2075200	0.5291400	-0.1851500	0.1382100	0.3654100	0.4651100	-0.1816100	0.7590100	0.2768800	-0.2906600	0.5294600	-0.1724900	-0.2489900	0.7535400	-0.2237100	-0.3267500	0.6905200	-0.2234800	-0.3549400	0.4780900	-0.2253200	-0.2269400	0.7257400	-0.2210400	0.2613600	0.6654000	-0.2299900	0.2866900	0.5310900	-0.2155400	0.0919300
722	12.0166667	0.8015500	0.8859700	-0.0466700	0.8033500	0.8934100	0.1240800	1.0037000	0.7422000	0.1855900	1.3162700	0.7698900	0.0865900	0.8337800	0.8891900	-0.2109100	0.9717300	0.6555000	-0.2604200	1.3711200	0.7331700	-0.1030700	0.3610600	0.4891400	-0.0479100	0.3918900	0.4973100	0.0832900	0.7452500	0.2798300	0.2049000	0.5292400	-0.1849700	0.1384100	0.3651000	0.5013700	-0.1817300	0.7513600	0.2815300	-0.2882500	0.5294600	-0.1725800	-0.2494000	0.7527500	-0.2237000	-0.3269600	0.6900600	-0.2236900	-0.3555100	0.4786700	-0.2242400	-0.2283700	0.7257200	-0.2210500	0.2613300	0.6662500	-0.2301800	0.2868900	0.5212600	-0.2188200	0.0890500
723	12.0333333	0.7931500	0.9153100	-0.0419300	0.8076000	0.9115000	0.1323100	1.0132700	0.7606700	0.1880400	1.3058600	0.7804500	0.0811400	0.8066100	0.9287500	-0.1990600	1.0141400	0.6958800	-0.2689400	1.3695500	0.7584200	-0.1043100	0.3727100	0.5082600	-0.0440000	0.3911500	0.5056600	0.0832900	0.7446300	0.2771900	0.2055700	0.5395000	-0.1816800	0.1413100	0.3654500	0.5089700	-0.1733500	0.7502400	0.2861000	-0.2873900	0.5295000	-0.1724100	-0.2490100	0.7621700	-0.2206600	-0.3229900	0.6909000	-0.2234300	-0.3548900	0.4772900	-0.2250300	-0.2281700	0.7257900	-0.2210200	0.2614400	0.6652800	-0.2297500	0.2867500	0.5309500	-0.2157100	0.0919800
724	12.0500000	0.7834300	0.9387800	-0.0383900	0.7762600	0.9395500	0.1302200	0.9966600	0.7910200	0.1828800	1.2919100	0.8208400	0.0709500	0.8067700	0.9413600	-0.2070800	1.0040700	0.7082800	-0.2883200	1.3653300	0.7883200	-0.1081000	0.3819400	0.5187500	-0.0481900	0.4101200	0.5246600	0.0745800	0.7351400	0.2775700	0.2019300	0.5291800	-0.1851200	0.1384500	0.3758100	0.5190400	-0.1777700	0.7513500	0.2865600	-0.2884700	0.5293500	-0.1725500	-0.2493800	0.7612400	-0.2207100	-0.3232000	0.6902200	-0.2237000	-0.3553900	0.4685300	-0.2277600	-0.2242200	0.7259400	-0.2209200	0.2613400	0.6662800	-0.2298600	0.2868800	0.5310400	-0.2188600	0.0927900
725	12.0666667	0.7754600	0.9686900	-0.0337000	0.7805800	0.9678200	0.1383900	0.9966800	0.8117400	0.1890300	1.2976100	0.8303200	0.0783700	0.8048300	0.9763300	-0.2071300	1.0660400	0.7691900	-0.2576500	1.3622200	0.8081400	-0.1072500	0.3720300	0.5282700	-0.0443900	0.3915800	0.5361900	0.0824400	0.7349400	0.2857000	0.2021000	0.5288800	-0.1890200	0.1375800	0.3768600	0.5314700	-0.1774100	0.7493700	0.2940000	-0.2871000	0.5292200	-0.1725200	-0.2489700	0.7623000	-0.2206200	-0.3230300	0.6908300	-0.2233100	-0.3549200	0.4668500	-0.2286500	-0.2240100	0.7258500	-0.2210800	0.2613600	0.6654100	-0.2298300	0.2866900	0.5308900	-0.2158700	0.0920000
726	12.0833333	0.7824900	0.9948000	-0.0383800	0.7773900	1.0018200	0.1378800	0.9932200	0.8375200	0.1890100	1.3000600	0.8663100	0.0806700	0.7962200	0.9949200	-0.2112200	1.0670800	0.7933400	-0.2569000	1.3591800	0.8368600	-0.1048100	0.3813500	0.5646700	-0.0405700	0.3997000	0.5668900	0.0791700	0.7336900	0.2891700	0.2022500	0.5183300	-0.1925500	0.1346200	0.3746800	0.5655900	-0.1695000	0.7387400	0.2985800	-0.2828200	0.5290200	-0.1765500	-0.2498600	0.7613000	-0.2206800	-0.3232800	0.6899500	-0.2236600	-0.3554500	0.4684600	-0.2353600	-0.2241100	0.7257200	-0.2211300	0.2614300	0.6661100	-0.2299400	0.2869800	0.5212700	-0.2191600	0.0890800
727	12.1000000	0.7737000	1.0235700	-0.0417000	0.7603600	1.0216600	0.1317500	0.9899500	0.8613400	0.1938500	1.2975700	0.8786800	0.0783400	0.7855400	1.0259500	-0.2154900	1.0737000	0.8149800	-0.2540700	1.3615400	0.8550200	-0.1072500	0.3725500	0.5725100	-0.0359100	0.3896900	0.5771300	0.0834600	0.7247600	0.2908400	0.1992200	0.5182100	-0.1925800	0.1344400	0.3959100	0.5766300	-0.1612000	0.7384800	0.3024700	-0.2820600	0.5288900	-0.1764700	-0.2494800	0.7537400	-0.2236600	-0.3267500	0.6727000	-0.2297200	-0.3551000	0.4669900	-0.2361700	-0.2239700	0.7256000	-0.2213600	0.2614200	0.6639900	-0.2301800	0.2879600	0.5209800	-0.2193000	0.0889300
728	12.1166667	0.7641700	1.0525500	-0.0377800	0.7609400	1.0588800	0.1466100	1.0097700	0.8886400	0.1948300	1.2922100	0.9073900	0.0776200	0.7856600	1.0529600	-0.2155400	1.0735800	0.8437300	-0.2535300	1.3380600	0.8774000	-0.1076400	0.3713500	0.5840000	-0.0355900	0.4006100	0.5902600	0.0871600	0.7248600	0.2933400	0.1983800	0.5183000	-0.1924200	0.1346500	0.4051500	0.5900300	-0.1574100	0.7381200	0.3056000	-0.2826900	0.5287800	-0.1767100	-0.2497900	0.7611200	-0.2207700	-0.3231800	0.6804900	-0.2240400	-0.3523100	0.4584700	-0.2390300	-0.2199800	0.7255100	-0.2212500	0.2612800	0.6547900	-0.2306200	0.2847900	0.5216000	-0.2161000	0.0884800
729	12.1333333	0.7644000	1.0779000	-0.0377500	0.7502600	1.0770700	0.1365400	0.9688300	0.9117500	0.2069900	1.2893500	0.9262100	0.0756400	0.7753400	1.0735100	-0.2197600	1.0642900	0.8605700	-0.2582600	1.3199500	0.9003200	-0.1132900	0.3733400	0.6030800	-0.0370400	0.4136600	0.6104600	0.0804300	0.7238100	0.3017200	0.1995500	0.5180700	-0.1888400	0.1351000	0.4048200	0.6095700	-0.1576200	0.7377600	0.3094700	-0.2820300	0.5288300	-0.1766000	-0.2494100	0.7533900	-0.2203900	-0.3186200	0.6811900	-0.2236400	-0.3518000	0.4668000	-0.2364300	-0.2239100	0.7254100	-0.2210900	0.2612400	0.6540100	-0.2304100	0.2845500	0.5208300	-0.2193000	0.0889900
730	12.1500000	0.7542700	1.1063900	-0.0337800	0.7605800	1.1070600	0.1466200	0.9805800	0.9399500	0.2122900	1.2841600	0.9463700	0.0741300	0.7570700	1.1062800	-0.2196300	1.0493200	0.8898400	-0.2576300	1.2853400	0.9188700	-0.1067100	0.3930400	0.6266000	-0.0287600	0.4108000	0.6285800	0.0824100	0.7232900	0.3084600	0.1992300	0.5181900	-0.1887600	0.1352600	0.4044600	0.6288100	-0.1499400	0.7371300	0.3091900	-0.2821500	0.5290000	-0.1726500	-0.2492700	0.7608600	-0.2174700	-0.3149100	0.6892400	-0.2209600	-0.3483000	0.4684000	-0.2354400	-0.2241000	0.7156400	-0.2245800	0.2584900	0.6629200	-0.2277900	0.2799800	0.5208500	-0.2222000	0.0898500
731	12.1666667	0.7629800	1.1339900	-0.0378000	0.7513200	1.1362800	0.1441000	0.9601500	0.9572200	0.2110300	1.2739200	0.9717400	0.0693900	0.7649100	1.1290200	-0.2239100	1.0236100	0.9014100	-0.2699000	1.2661500	0.9455200	-0.1050100	0.4150100	0.6462400	-0.0296000	0.4405900	0.6490200	0.0756700	0.7148200	0.3133800	0.1957100	0.5178800	-0.1889400	0.1350400	0.4255900	0.6485600	-0.1498300	0.7111700	0.3103400	-0.2780300	0.5289600	-0.1724400	-0.2488400	0.7531600	-0.2204600	-0.3185300	0.6810800	-0.2236200	-0.3517700	0.4671400	-0.2325100	-0.2232200	0.7154500	-0.2248400	0.2584900	0.6515200	-0.2313400	0.2771200	0.5205000	-0.2223400	0.0896300
732	12.1833333	0.7450400	1.1569500	-0.0299700	0.7414700	1.1548800	0.1477100	0.9387800	0.9935300	0.2122800	1.2756900	0.9867700	0.0716600	0.7470100	1.1610100	-0.2161200	1.0162800	0.9389500	-0.2729800	1.2623400	0.9646400	-0.1093400	0.4248600	0.6625400	-0.0260200	0.4440100	0.6659200	0.0748200	0.7032800	0.3147400	0.1927400	0.5180200	-0.1889900	0.1352100	0.4254100	0.6575000	-0.1499100	0.7034500	0.3173600	-0.2679600	0.5288400	-0.1724700	-0.2491900	0.7431300	-0.2236800	-0.3149500	0.6710900	-0.2241000	-0.3491100	0.4586200	-0.2350900	-0.2193500	0.7073700	-0.2275600	0.2630800	0.6329400	-0.2381700	0.2804700	0.5213700	-0.2279700	0.0909900
733	12.2000000	0.7440500	1.1926000	-0.0371900	0.7406500	1.1914700	0.1407400	0.9872700	0.9988100	0.2267300	1.2732400	1.0080600	0.0690300	0.7456700	1.1877000	-0.2240200	0.9993500	0.9521200	-0.2740200	1.2616100	0.9770000	-0.1092900	0.4381100	0.6718000	-0.0234300	0.4446300	0.6743900	0.0741000	0.6835800	0.3138600	0.1863500	0.5075300	-0.1888000	0.1325600	0.4254100	0.6689400	-0.1499200	0.7019000	0.3110000	-0.2665500	0.5288800	-0.1725000	-0.2487400	0.7352900	-0.2267900	-0.3184800	0.6625900	-0.2230900	-0.3519900	0.4573300	-0.2358000	-0.2190000	0.7149400	-0.2245000	0.2585500	0.6219300	-0.2381200	0.2781600	0.5210100	-0.2282100	0.0908100
734	12.2166667	0.7347100	1.2078400	-0.0336800	0.7212400	1.2057100	0.1411100	1.0309600	0.9981700	0.2409700	1.2613400	1.0157900	0.0721400	0.7365600	1.2128300	-0.2202400	0.9988300	0.9730900	-0.2734700	1.2585900	1.0005200	-0.1080700	0.4475600	0.6847300	-0.0277600	0.4673600	0.6904000	0.0816100	0.6727000	0.3180800	0.1829000	0.5072000	-0.1926100	0.1321200	0.4255100	0.6870000	-0.1511000	0.6841600	0.3169100	-0.2593100	0.5289600	-0.1724500	-0.2491200	0.7342900	-0.2268300	-0.3187600	0.6618800	-0.2233400	-0.3524500	0.4593500	-0.2311700	-0.2185900	0.7047200	-0.2280500	0.2557800	0.6224800	-0.2382900	0.2782500	0.5210100	-0.2280900	0.0910200
735	12.2333333	0.7247200	1.2410000	-0.0368100	0.7215000	1.2430400	0.1416700	0.9427300	1.0473600	0.2194200	1.2398600	1.0385300	0.0820600	0.7440600	1.2332900	-0.2243800	0.9891000	1.0040100	-0.2708400	1.2467200	1.0205100	-0.1088600	0.4564700	0.7069700	-0.0319500	0.4744400	0.7081400	0.0767400	0.6611900	0.3157300	0.1725800	0.5073800	-0.1887100	0.1326000	0.4451200	0.7030400	-0.1506100	0.6751500	0.3229600	-0.2550200	0.5289800	-0.1725200	-0.2488200	0.7354200	-0.2267600	-0.3185500	0.6628000	-0.2230100	-0.3521300	0.4674100	-0.2324700	-0.2233000	0.7045400	-0.2281300	0.2558100	0.6216000	-0.2346800	0.2775800	0.5111800	-0.2285800	0.0948100
736	12.2500000	0.7144600	1.2559000	-0.0412000	0.7100600	1.2576200	0.1375700	0.9674100	1.0528900	0.2285000	1.2246900	1.0512700	0.0707500	0.7264700	1.2572300	-0.2244300	0.9739800	1.0108000	-0.2700400	1.2466900	1.0271400	-0.1086000	0.4547000	0.7192700	-0.0313800	0.4716900	0.7239900	0.0781100	0.6602500	0.3149800	0.1719700	0.5073400	-0.1886200	0.1327300	0.4453700	0.7203300	-0.1507500	0.6643400	0.3321500	-0.2506300	0.5289400	-0.1726300	-0.2491700	0.7342800	-0.2267900	-0.3187500	0.6618200	-0.2233900	-0.3524600	0.4689400	-0.2352700	-0.2240200	0.6944000	-0.2317700	0.2530700	0.6223400	-0.2312300	0.2783100	0.5116200	-0.2311600	0.0955700
737	12.2666667	0.7136900	1.2773300	-0.0405900	0.7113800	1.2762500	0.1383600	1.0028500	1.0510400	0.2433600	1.2291300	1.0654400	0.0646600	0.7250300	1.2797600	-0.2242700	0.9632000	1.0382400	-0.2676600	1.2343500	1.0450800	-0.1108600	0.4772600	0.7286300	-0.0330800	0.5085900	0.7381600	0.0868700	0.6598300	0.3181400	0.1640600	0.5073300	-0.1886800	0.1325900	0.4554400	0.7252400	-0.1547900	0.6634500	0.3252800	-0.2492700	0.5288700	-0.1727000	-0.2488200	0.7441500	-0.2201500	-0.3140100	0.6716600	-0.2231900	-0.3475700	0.4672300	-0.2361800	-0.2239900	0.6942500	-0.2318400	0.2530400	0.6214300	-0.2347600	0.2775200	0.5112100	-0.2285600	0.0948300
